<?xml version="1.0" encoding="utf-8"?>
<!-- Generator: Adobe Illustrator 16.0.0, SVG Export Plug-In . SVG Version: 6.00 Build 0)  -->
<!DOCTYPE svg PUBLIC "-//W3C//DTD SVG 1.1//EN" "http://www.w3.org/Graphics/SVG/1.1/DTD/svg11.dtd">
<svg version="1.1" id="Calque_1" xmlns="http://www.w3.org/2000/svg" xmlns:xlink="http://www.w3.org/1999/xlink" x="0px" y="0px"
	 width="1000px" height="227.963px" viewBox="0 0 1000 227.963" enable-background="new 0 0 1000 227.963" xml:space="preserve">
<g>
	<path fill="#BABABA" d="M87.316,156.427c-19.771,0-35.769,15.998-35.769,35.743c0,1.554,0.126,3.032,0.32,4.512
		c2.191,17.625,17.231,31.281,35.448,31.281c18.71,0,34.039-14.396,35.617-32.735c0.077-0.986,0.151-2.021,0.151-3.032
		C123.084,172.425,107.062,156.427,87.316,156.427L87.316,156.427z M69.395,178.711l7.293,7.297
		c-0.567,0.961-1.008,2.021-1.279,3.131H65.103C65.645,185.243,67.13,181.693,69.395,178.711L69.395,178.711z M65.078,195.351
		h10.356c0.296,1.084,0.712,2.145,1.307,3.081l-7.321,7.321C67.155,202.771,65.62,199.221,65.078,195.351L65.078,195.351z
		 M84.21,214.405c-3.873-0.542-7.396-2.046-10.378-4.313l7.275-7.272c0.958,0.567,1.993,0.962,3.103,1.258V214.405z M84.21,180.289
		c-1.134,0.296-2.169,0.739-3.155,1.306l-7.275-7.271c2.986-2.268,6.539-3.796,10.43-4.314V180.289z M90.397,169.984
		c3.892,0.543,7.469,2.046,10.449,4.339l-7.269,7.271c-0.986-0.566-2.046-1.035-3.18-1.331V169.984z M90.397,214.405v-10.328
		c1.109-0.296,2.145-0.715,3.103-1.258l7.275,7.272C97.817,212.335,94.271,213.863,90.397,214.405L90.397,214.405z M105.213,205.777
		l-7.318-7.346c0.566-0.961,1.032-1.997,1.331-3.081h10.279C108.963,199.221,107.48,202.795,105.213,205.777L105.213,205.777z
		 M99.226,189.139c-0.299-1.109-0.721-2.17-1.282-3.131l7.294-7.297c2.243,2.982,3.75,6.532,4.268,10.428H99.226z M99.226,189.139"
		/>
	<g>
		<path fill="#BABABA" d="M396.289,154.134c-19.745,0-35.744,15.999-35.744,35.769c0,1.528,0.124,3.032,0.321,4.511
			c2.193,17.626,17.206,31.258,35.423,31.258c18.734,0,34.067-14.396,35.621-32.712c0.098-1.011,0.172-2.021,0.172-3.057
			C432.058,170.133,416.059,154.134,396.289,154.134L396.289,154.134z M378.368,176.419l7.321,7.296
			c-0.592,0.986-1.011,2.021-1.307,3.155h-10.279C374.621,182.976,376.125,179.426,378.368,176.419L378.368,176.419z
			 M374.079,193.058h10.353c0.297,1.109,0.715,2.145,1.282,3.106l-7.297,7.321C376.149,200.502,374.597,196.928,374.079,193.058
			L374.079,193.058z M393.208,212.138c-3.87-0.543-7.396-2.071-10.378-4.314l7.271-7.271c0.938,0.566,1.997,0.961,3.106,1.257
			V212.138z M393.208,177.996c-1.134,0.296-2.194,0.739-3.181,1.331l-7.271-7.297c2.982-2.268,6.557-3.771,10.452-4.313V177.996z
			 M399.396,167.717c3.895,0.542,7.469,2.046,10.452,4.313l-7.272,7.297c-0.986-0.592-2.046-1.035-3.18-1.331V167.717z
			 M399.396,212.113v-10.305c1.108-0.296,2.145-0.715,3.105-1.257l7.272,7.271C406.79,210.066,403.266,211.57,399.396,212.113
			L399.396,212.113z M414.21,203.51l-7.346-7.346c0.561-0.962,1.06-1.997,1.356-3.106H418.5
			C417.933,196.928,416.479,200.527,414.21,203.51L414.21,203.51z M408.221,186.87c-0.297-1.134-0.74-2.169-1.307-3.155l7.296-7.296
			c2.269,3.007,3.747,6.557,4.29,10.451H408.221z M408.221,186.87"/>
		<path fill="#BABABA" d="M493.61,159.163l-2.415-1.061v-27.017c0-6.878-2.047-13.579-5.917-19.252l-20.879-30.69
			c-7.321-10.772-18.883-17.921-31.774-19.668c-42.819-5.846-143.222-16.516-209.782,0.314
			c-49.172,12.477-108.315,50.044-108.315,50.044s-75.872,12.35-92.635,21.517c-12.84,7.01-20.438,16.001-21.72,28.894
			c-0.61,6.163,0.493,14.347,1.824,21.2c1.553,7.962,7.792,14.198,15.751,15.727l27.93,5.374c-0.662-2.219-1.18-4.535-1.476-6.902
			c-0.247-1.947-0.373-3.747-0.373-5.473c0-23.96,19.502-43.459,43.462-43.459c23.985,0,43.487,19.499,43.487,43.459
			c0,1.233-0.102,2.466-0.179,3.674c-0.271,3.13-0.909,6.162-1.821,9.071h226.788c-1.135-3.032-1.947-6.212-2.367-9.564
			c-0.246-1.947-0.369-3.723-0.369-5.448c0-23.96,19.474-43.459,43.459-43.459c23.961,0,43.484,19.499,43.484,43.459
			c0,1.232-0.099,2.465-0.173,3.673c-0.345,3.944-1.257,7.766-2.589,11.34h0.297l52.604-16.122c4.757-1.43,8.233-5.521,8.923-10.452
			l1.061-7.863C500.563,165.72,497.974,161.11,493.61,159.163L493.61,159.163z M343.463,64.06v43.361l-62.688,3.131V63.324
			c0.32,0,0.641-0.025,0.986-0.025C303.281,63.12,324.26,63.444,343.463,64.06L343.463,64.06z M167.012,98.821v-4.936
			c0,0,39.195-24.207,95.374-29.501l-5.497,47.354l-89.877,4.505c0,0,4.293-1.969,4.293-11.509
			C171.305,104.734,170.956,100.466,167.012,98.821L167.012,98.821z M355.418,106.829V84.172l11.709,22.063L355.418,106.829z
			 M443.89,99.754c-3.624,1.926-7.666,3.035-11.783,3.229l-51.544,2.588l-21.718-40.917c39.762,1.673,69.22,4.486,75.037,6.132
			c9.194,2.641,17.552,15.209,17.23,21.453C450.939,95.317,447.415,97.906,443.89,99.754L443.89,99.754z M443.89,99.754"/>
	</g>
</g>
<g>
	<path fill="#D90000" d="M587.316,156.427c-19.771,0-35.769,15.998-35.769,35.743c0,1.554,0.126,3.032,0.32,4.512
		c2.19,17.625,17.23,31.281,35.448,31.281c18.71,0,34.039-14.396,35.617-32.735c0.077-0.986,0.15-2.021,0.15-3.032
		C623.084,172.425,607.062,156.427,587.316,156.427L587.316,156.427z M569.395,178.711l7.294,7.297
		c-0.567,0.961-1.008,2.021-1.279,3.131h-10.307C565.645,185.243,567.13,181.693,569.395,178.711L569.395,178.711z M565.078,195.351
		h10.356c0.296,1.084,0.712,2.145,1.307,3.081l-7.321,7.321C567.154,202.771,565.62,199.221,565.078,195.351L565.078,195.351z
		 M584.21,214.405c-3.873-0.542-7.396-2.046-10.378-4.313l7.275-7.272c0.958,0.567,1.993,0.962,3.103,1.258V214.405z
		 M584.21,180.289c-1.134,0.296-2.169,0.739-3.155,1.306l-7.275-7.271c2.986-2.268,6.539-3.796,10.431-4.314V180.289z
		 M590.397,169.984c3.892,0.543,7.469,2.046,10.448,4.339l-7.269,7.271c-0.986-0.566-2.046-1.035-3.18-1.331V169.984z
		 M590.397,214.405v-10.328c1.109-0.296,2.145-0.715,3.103-1.258l7.275,7.272C597.817,212.335,594.271,213.863,590.397,214.405
		L590.397,214.405z M605.213,205.777l-7.318-7.346c0.566-0.961,1.032-1.997,1.331-3.081h10.279
		C608.963,199.221,607.48,202.795,605.213,205.777L605.213,205.777z M599.226,189.139c-0.299-1.109-0.722-2.17-1.282-3.131
		l7.294-7.297c2.243,2.982,3.75,6.532,4.268,10.428H599.226z M599.226,189.139"/>
	<g>
		<path fill="#D90000" d="M896.289,154.134c-19.745,0-35.744,15.999-35.744,35.769c0,1.528,0.124,3.032,0.321,4.511
			c2.193,17.626,17.206,31.258,35.423,31.258c18.734,0,34.067-14.396,35.621-32.712c0.098-1.011,0.172-2.021,0.172-3.057
			C932.058,170.133,916.059,154.134,896.289,154.134L896.289,154.134z M878.368,176.419l7.321,7.296
			c-0.592,0.986-1.011,2.021-1.307,3.155h-10.279C874.621,182.976,876.125,179.426,878.368,176.419L878.368,176.419z
			 M874.079,193.058h10.353c0.297,1.109,0.715,2.145,1.282,3.106l-7.297,7.321C876.149,200.502,874.597,196.928,874.079,193.058
			L874.079,193.058z M893.208,212.138c-3.87-0.543-7.396-2.071-10.378-4.314l7.271-7.271c0.938,0.566,1.997,0.961,3.106,1.257
			V212.138z M893.208,177.996c-1.134,0.296-2.194,0.739-3.181,1.331l-7.271-7.297c2.982-2.268,6.557-3.771,10.452-4.313V177.996z
			 M899.396,167.717c3.895,0.542,7.469,2.046,10.452,4.313l-7.272,7.297c-0.986-0.592-2.046-1.035-3.18-1.331V167.717z
			 M899.396,212.113v-10.305c1.108-0.296,2.145-0.715,3.105-1.257l7.272,7.271C906.79,210.066,903.266,211.57,899.396,212.113
			L899.396,212.113z M914.21,203.51l-7.346-7.346c0.561-0.962,1.06-1.997,1.356-3.106H918.5
			C917.933,196.928,916.479,200.527,914.21,203.51L914.21,203.51z M908.221,186.87c-0.297-1.134-0.74-2.169-1.307-3.155l7.296-7.296
			c2.269,3.007,3.747,6.557,4.29,10.451H908.221z M908.221,186.87"/>
		<path fill="#D90000" d="M993.61,159.163l-2.415-1.061v-27.017c0-6.878-2.047-13.579-5.917-19.252l-20.879-30.69
			c-7.321-10.772-18.883-17.921-31.774-19.668c-42.819-5.846-143.222-16.516-209.782,0.314
			c-49.172,12.477-108.315,50.044-108.315,50.044s-75.872,12.35-92.635,21.517c-12.84,7.01-20.438,16.001-21.721,28.894
			c-0.61,6.163,0.493,14.347,1.824,21.2c1.554,7.962,7.793,14.198,15.752,15.727l27.93,5.374c-0.662-2.219-1.181-4.535-1.476-6.902
			c-0.247-1.947-0.373-3.747-0.373-5.473c0-23.96,19.502-43.459,43.462-43.459c23.985,0,43.487,19.499,43.487,43.459
			c0,1.233-0.102,2.466-0.179,3.674c-0.271,3.13-0.909,6.162-1.821,9.071h226.788c-1.135-3.032-1.947-6.212-2.367-9.564
			c-0.246-1.947-0.369-3.723-0.369-5.448c0-23.96,19.474-43.459,43.459-43.459c23.961,0,43.484,19.499,43.484,43.459
			c0,1.232-0.099,2.465-0.173,3.673c-0.345,3.944-1.257,7.766-2.589,11.34h0.297l52.604-16.122c4.757-1.43,8.233-5.521,8.923-10.452
			l1.061-7.863C1000.563,165.72,997.974,161.11,993.61,159.163L993.61,159.163z M843.463,64.06v43.361l-62.688,3.131V63.324
			c0.32,0,0.641-0.025,0.986-0.025C803.281,63.12,824.26,63.444,843.463,64.06L843.463,64.06z M667.012,98.821v-4.936
			c0,0,39.195-24.207,95.374-29.501l-5.497,47.354l-89.877,4.505c0,0,4.293-1.969,4.293-11.509
			C671.305,104.734,670.956,100.466,667.012,98.821L667.012,98.821z M855.418,106.829V84.172l11.709,22.063L855.418,106.829z
			 M943.89,99.754c-3.624,1.926-7.666,3.035-11.783,3.229l-51.544,2.588l-21.718-40.917c39.762,1.673,69.22,4.486,75.037,6.132
			c9.194,2.641,17.552,15.209,17.23,21.453C950.939,95.317,947.415,97.906,943.89,99.754L943.89,99.754z M943.89,99.754"/>
	</g>
</g>
</svg>
